<?xml version="1.0" standalone="no"?>
<!DOCTYPE svg PUBLIC "-//W3C//DTD SVG 20010904//EN"
 "http://www.w3.org/TR/2001/REC-SVG-20010904/DTD/svg10.dtd">
<svg version="1.0" xmlns="http://www.w3.org/2000/svg"
 width="2048.000000pt" height="2048.000000pt" viewBox="0 0 2048.000000 2048.000000"
 preserveAspectRatio="xMidYMid meet">
<metadata>
Created by potrace 1.14, written by Peter Selinger 2001-2017
</metadata>
<g transform="translate(0.000000,2048.000000) scale(0.100000,-0.100000)"
fill="#000000" stroke="none">
<path d="M5120 15355 l-5115 -5115 5118 -5118 5117 -5117 5117 5117 5118 5118
-5115 5115 c-2813 2813 -5117 5115 -5120 5115 -3 0 -2307 -2302 -5120 -5115z
m7348 49 c212 -31 409 -108 635 -251 258 -163 443 -374 588 -668 121 -247 177
-469 186 -733 6 -194 -5 -307 -44 -441 l-24 -85 1603 -1603 1603 -1603 -2155
-2155 -2155 -2155 -577 577 -578 578 1577 1577 1577 1577 -1018 1025 c-560
564 -1026 1026 -1035 1026 -9 0 -44 -9 -78 -20 -184 -57 -474 -64 -708 -16
-304 63 -599 203 -825 391 -141 118 -221 213 -336 400 -166 272 -231 489 -241
815 -12 371 83 732 265 1015 102 159 303 366 461 474 354 242 816 341 1279
275z m-4110 -1217 l572 -572 -1575 -1575 c-866 -866 -1575 -1579 -1575 -1585
0 -6 459 -469 1020 -1030 l1019 -1019 43 12 c160 47 232 56 423 56 140 0 214
-5 280 -17 386 -75 703 -233 956 -474 94 -90 164 -180 255 -328 167 -273 231
-488 241 -815 13 -404 -103 -802 -319 -1095 -77 -105 -299 -321 -403 -391
-287 -195 -626 -295 -1005 -296 -330 0 -571 65 -842 227 -149 90 -187 116
-272 190 -203 177 -387 465 -485 760 -63 191 -82 295 -88 501 -6 195 7 318 49
453 l20 64 -1604 1604 -1603 1603 2150 2150 c1182 1183 2155 2150 2160 2150 6
0 268 -258 583 -573z"/>
</g>
</svg>
